<?xml version="1.0" encoding="UTF-8" standalone="no"?>
<!DOCTYPE svg PUBLIC "-//W3C//DTD SVG 1.0//EN" "http://www.w3.org/TR/2001/PR-SVG-20010719/DTD/svg10.dtd">
<svg width="43cm" height="29cm" viewBox="114 248 847 566" xmlns="http://www.w3.org/2000/svg" xmlns:xlink="http://www.w3.org/1999/xlink">
  <g>
    <rect style="fill: #ffffff" x="227" y="380" width="118.6" height="28"/>
    <rect style="fill: none; fill-opacity:0; stroke-width: 2; stroke: #000000" x="227" y="380" width="118.6" height="28"/>
    <text font-size="16" style="fill: #000000;text-anchor:middle;font-family:sans-serif;font-style:normal;font-weight:700" x="286.3" y="399">BaseRunner</text>
    <rect style="fill: #ffffff" x="227" y="408" width="118.6" height="8"/>
    <rect style="fill: none; fill-opacity:0; stroke-width: 2; stroke: #000000" x="227" y="408" width="118.6" height="8"/>
    <rect style="fill: #ffffff" x="227" y="416" width="118.6" height="8"/>
    <rect style="fill: none; fill-opacity:0; stroke-width: 2; stroke: #000000" x="227" y="416" width="118.6" height="8"/>
  </g>
  <g>
    <rect style="fill: #ffffff" x="115" y="525" width="158.95" height="28"/>
    <rect style="fill: none; fill-opacity:0; stroke-width: 2; stroke: #000000" x="115" y="525" width="158.95" height="28"/>
    <text font-size="16" style="fill: #000000;text-anchor:middle;font-family:sans-serif;font-style:normal;font-weight:700" x="194.475" y="544">TestSuiteRunner</text>
    <rect style="fill: #ffffff" x="115" y="553" width="158.95" height="8"/>
    <rect style="fill: none; fill-opacity:0; stroke-width: 2; stroke: #000000" x="115" y="553" width="158.95" height="8"/>
    <rect style="fill: #ffffff" x="115" y="561" width="158.95" height="8"/>
    <rect style="fill: none; fill-opacity:0; stroke-width: 2; stroke: #000000" x="115" y="561" width="158.95" height="8"/>
  </g>
  <g>
    <rect style="fill: #ffffff" x="311" y="525.228" width="141.15" height="28"/>
    <rect style="fill: none; fill-opacity:0; stroke-width: 2; stroke: #000000" x="311" y="525.228" width="141.15" height="28"/>
    <text font-size="16" style="fill: #000000;text-anchor:middle;font-family:sans-serif;font-style:normal;font-weight:700" x="381.575" y="544.228">TestBinRunner</text>
    <rect style="fill: #ffffff" x="311" y="553.228" width="141.15" height="8"/>
    <rect style="fill: none; fill-opacity:0; stroke-width: 2; stroke: #000000" x="311" y="553.228" width="141.15" height="8"/>
    <rect style="fill: #ffffff" x="311" y="561.228" width="141.15" height="8"/>
    <rect style="fill: none; fill-opacity:0; stroke-width: 2; stroke: #000000" x="311" y="561.228" width="141.15" height="8"/>
  </g>
  <g>
    <polyline style="fill: none; fill-opacity:0; stroke-width: 2; stroke: #000000" points="286.3,443.242 286.3,482.5 194.475,482.5 194.475,523.994 "/>
    <polygon style="fill: #ffffff" points="294.3,443.242 286.3,427.242 278.3,443.242 "/>
    <polygon style="fill: none; fill-opacity:0; stroke-width: 2; stroke: #000000" points="294.3,443.242 286.3,427.242 278.3,443.242 "/>
  </g>
  <g>
    <polyline style="fill: none; fill-opacity:0; stroke-width: 2; stroke: #000000" points="286.3,443.242 286.3,482.614 381.575,482.614 381.575,524.222 "/>
    <polygon style="fill: #ffffff" points="294.3,443.242 286.3,427.242 278.3,443.242 "/>
    <polygon style="fill: none; fill-opacity:0; stroke-width: 2; stroke: #000000" points="294.3,443.242 286.3,427.242 278.3,443.242 "/>
  </g>
  <g>
    <rect style="fill: #d4d4d4" x="243.876" y="768.614" width="82.15" height="28"/>
    <rect style="fill: none; fill-opacity:0; stroke-width: 2; stroke: #000000" x="243.876" y="768.614" width="82.15" height="28"/>
    <text font-size="16" style="fill: #000000;text-anchor:middle;font-family:sans-serif;font-style:normal;font-weight:700" x="284.951" y="787.614">QObject</text>
    <rect style="fill: #d4d4d4" x="243.876" y="796.614" width="82.15" height="8"/>
    <rect style="fill: none; fill-opacity:0; stroke-width: 2; stroke: #000000" x="243.876" y="796.614" width="82.15" height="8"/>
    <rect style="fill: #d4d4d4" x="243.876" y="804.614" width="82.15" height="8"/>
    <rect style="fill: none; fill-opacity:0; stroke-width: 2; stroke: #000000" x="243.876" y="804.614" width="82.15" height="8"/>
  </g>
  <g>
    <rect style="fill: #ffffff" x="125.352" y="638.508" width="137.05" height="28"/>
    <rect style="fill: none; fill-opacity:0; stroke-width: 2; stroke: #000000" x="125.352" y="638.508" width="137.05" height="28"/>
    <text font-size="16" style="fill: #000000;text-anchor:middle;font-family:sans-serif;font-style:normal;font-weight:700" x="193.877" y="657.508">TestSuiteBase</text>
    <rect style="fill: #ffffff" x="125.352" y="666.508" width="137.05" height="8"/>
    <rect style="fill: none; fill-opacity:0; stroke-width: 2; stroke: #000000" x="125.352" y="666.508" width="137.05" height="8"/>
    <rect style="fill: #ffffff" x="125.352" y="674.508" width="137.05" height="8"/>
    <rect style="fill: none; fill-opacity:0; stroke-width: 2; stroke: #000000" x="125.352" y="674.508" width="137.05" height="8"/>
  </g>
  <g>
    <rect style="fill: #ffffff" x="614" y="592.998" width="122.55" height="28"/>
    <rect style="fill: none; fill-opacity:0; stroke-width: 2; stroke: #000000" x="614" y="592.998" width="122.55" height="28"/>
    <text font-size="16" style="fill: #000000;text-anchor:middle;font-family:sans-serif;font-style:normal;font-weight:700" x="675.275" y="611.998">TUGSettings</text>
    <rect style="fill: #ffffff" x="614" y="620.998" width="122.55" height="8"/>
    <rect style="fill: none; fill-opacity:0; stroke-width: 2; stroke: #000000" x="614" y="620.998" width="122.55" height="8"/>
    <rect style="fill: #ffffff" x="614" y="628.998" width="122.55" height="8"/>
    <rect style="fill: none; fill-opacity:0; stroke-width: 2; stroke: #000000" x="614" y="628.998" width="122.55" height="8"/>
  </g>
  <g>
    <rect style="fill: #ffffff" x="614" y="388.41" width="235.95" height="28"/>
    <rect style="fill: none; fill-opacity:0; stroke-width: 2; stroke: #000000" x="614" y="388.41" width="235.95" height="28"/>
    <text font-size="16" style="fill: #000000;text-anchor:middle;font-family:sans-serif;font-style:normal;font-weight:700" x="731.975" y="407.41">TestSuiteOutputManager</text>
    <rect style="fill: #ffffff" x="614" y="416.41" width="235.95" height="8"/>
    <rect style="fill: none; fill-opacity:0; stroke-width: 2; stroke: #000000" x="614" y="416.41" width="235.95" height="8"/>
    <rect style="fill: #ffffff" x="614" y="424.41" width="235.95" height="8"/>
    <rect style="fill: none; fill-opacity:0; stroke-width: 2; stroke: #000000" x="614" y="424.41" width="235.95" height="8"/>
  </g>
  <g>
    <rect style="fill: #ffffff" x="864" y="455" width="95.25" height="28"/>
    <rect style="fill: none; fill-opacity:0; stroke-width: 2; stroke: #000000" x="864" y="455" width="95.25" height="28"/>
    <text font-size="16" style="fill: #000000;text-anchor:middle;font-family:sans-serif;font-style:normal;font-weight:700" x="911.625" y="474">GcovUtils</text>
    <rect style="fill: #ffffff" x="864" y="483" width="95.25" height="8"/>
    <rect style="fill: none; fill-opacity:0; stroke-width: 2; stroke: #000000" x="864" y="483" width="95.25" height="8"/>
    <rect style="fill: #ffffff" x="864" y="491" width="95.25" height="8"/>
    <rect style="fill: none; fill-opacity:0; stroke-width: 2; stroke: #000000" x="864" y="491" width="95.25" height="8"/>
  </g>
  <g>
    <polyline style="fill: none; fill-opacity:0; stroke-width: 2; stroke: #000000" points="284.951,749.372 284.951,717.561 193.877,717.561 193.877,683.514 "/>
    <polygon style="fill: #ffffff" points="276.951,749.372 284.951,765.372 292.951,749.372 "/>
    <polygon style="fill: none; fill-opacity:0; stroke-width: 2; stroke: #000000" points="276.951,749.372 284.951,765.372 292.951,749.372 "/>
  </g>
  <g>
    <rect style="fill: #ffffff" x="304.66" y="637.634" width="153.7" height="28"/>
    <rect style="fill: none; fill-opacity:0; stroke-width: 2; stroke: #000000" x="304.66" y="637.634" width="153.7" height="28"/>
    <text font-size="16" style="fill: #000000;text-anchor:middle;font-family:sans-serif;font-style:normal;font-weight:700" x="381.51" y="656.634">QtOutputBinder</text>
    <rect style="fill: #ffffff" x="304.66" y="665.634" width="153.7" height="8"/>
    <rect style="fill: none; fill-opacity:0; stroke-width: 2; stroke: #000000" x="304.66" y="665.634" width="153.7" height="8"/>
    <rect style="fill: #ffffff" x="304.66" y="673.634" width="153.7" height="8"/>
    <rect style="fill: none; fill-opacity:0; stroke-width: 2; stroke: #000000" x="304.66" y="673.634" width="153.7" height="8"/>
  </g>
  <g>
    <rect style="fill: #ffffff" x="613" y="456" width="115.05" height="28"/>
    <rect style="fill: none; fill-opacity:0; stroke-width: 2; stroke: #000000" x="613" y="456" width="115.05" height="28"/>
    <text font-size="16" style="fill: #000000;text-anchor:middle;font-family:sans-serif;font-style:normal;font-weight:700" x="670.525" y="475">qt_TestUtils</text>
    <rect style="fill: #ffffff" x="613" y="484" width="115.05" height="8"/>
    <rect style="fill: none; fill-opacity:0; stroke-width: 2; stroke: #000000" x="613" y="484" width="115.05" height="8"/>
    <rect style="fill: #ffffff" x="613" y="492" width="115.05" height="8"/>
    <rect style="fill: none; fill-opacity:0; stroke-width: 2; stroke: #000000" x="613" y="492" width="115.05" height="8"/>
  </g>
  <g>
    <rect style="fill: #ffffff" x="612.664" y="318.524" width="101.1" height="28"/>
    <rect style="fill: none; fill-opacity:0; stroke-width: 2; stroke: #000000" x="612.664" y="318.524" width="101.1" height="28"/>
    <text font-size="16" style="fill: #000000;text-anchor:middle;font-family:sans-serif;font-style:normal;font-weight:700" x="663.214" y="337.524">segvcatch</text>
    <rect style="fill: #ffffff" x="612.664" y="346.524" width="101.1" height="8"/>
    <rect style="fill: none; fill-opacity:0; stroke-width: 2; stroke: #000000" x="612.664" y="346.524" width="101.1" height="8"/>
    <rect style="fill: #ffffff" x="612.664" y="354.524" width="101.1" height="8"/>
    <rect style="fill: none; fill-opacity:0; stroke-width: 2; stroke: #000000" x="612.664" y="354.524" width="101.1" height="8"/>
  </g>
  <g>
    <polyline style="fill: none; fill-opacity:0; stroke-width: 2; stroke: #000000" points="284.951,749.372 284.951,717.124 381.51,717.124 381.51,682.64 "/>
    <polygon style="fill: #ffffff" points="276.951,749.372 284.951,765.372 292.951,749.372 "/>
    <polygon style="fill: none; fill-opacity:0; stroke-width: 2; stroke: #000000" points="276.951,749.372 284.951,765.372 292.951,749.372 "/>
  </g>
  <g>
    <rect style="fill: #d4d4d4" x="613.07" y="249.09" width="125.75" height="28"/>
    <rect style="fill: none; fill-opacity:0; stroke-width: 2; stroke: #000000" x="613.07" y="249.09" width="125.75" height="28"/>
    <text font-size="16" style="fill: #000000;text-anchor:middle;font-family:sans-serif;font-style:normal;font-weight:700" x="675.945" y="268.09">QApplication</text>
    <rect style="fill: #d4d4d4" x="613.07" y="277.09" width="125.75" height="8"/>
    <rect style="fill: none; fill-opacity:0; stroke-width: 2; stroke: #000000" x="613.07" y="277.09" width="125.75" height="8"/>
    <rect style="fill: #d4d4d4" x="613.07" y="285.09" width="125.75" height="8"/>
    <rect style="fill: none; fill-opacity:0; stroke-width: 2; stroke: #000000" x="613.07" y="285.09" width="125.75" height="8"/>
  </g>
  <g>
    <polyline style="fill: none; fill-opacity:0; stroke-width: 2; stroke: #000000" points="346.607,402 479.839,402 479.839,263.09 608.598,263.09 "/>
    <polyline style="fill: none; fill-opacity:0; stroke-width: 2; stroke: #000000" points="600.834,268.09 610.834,263.09 600.834,258.09 "/>
  </g>
  <g>
    <polyline style="fill: none; fill-opacity:0; stroke-width: 2; stroke: #000000" points="346.607,402 480.304,402 480.304,402.41 609.528,402.41 "/>
    <polyline style="fill: none; fill-opacity:0; stroke-width: 2; stroke: #000000" points="601.764,407.41 611.764,402.41 601.764,397.41 "/>
  </g>
  <g>
    <polyline style="fill: none; fill-opacity:0; stroke-width: 2; stroke: #000000" points="346.607,402 479.636,402 479.636,332.524 608.192,332.524 "/>
    <polyline style="fill: none; fill-opacity:0; stroke-width: 2; stroke: #000000" points="600.428,337.524 610.428,332.524 600.428,327.524 "/>
  </g>
  <g>
    <polyline style="fill: none; fill-opacity:0; stroke-width: 2; stroke: #000000" points="194.475,570.006 194.475,603.754 193.877,603.754 193.877,633.03 "/>
    <polyline style="fill: none; fill-opacity:0; stroke-width: 2; stroke: #000000" points="188.877,625.266 193.877,635.266 198.877,625.266 "/>
  </g>
  <g>
    <polyline style="fill: none; fill-opacity:0; stroke-width: 2; stroke: #000000" points="381.575,569.228 381.575,603.431 381.51,603.431 381.51,633.162 "/>
    <polyline style="fill: none; fill-opacity:0; stroke-width: 2; stroke: #000000" points="376.51,625.398 381.51,635.398 386.51,625.398 "/>
  </g>
  <g>
    <polyline style="fill: none; fill-opacity:0; stroke-width: 2; stroke: #000000" points="346.607,402 479.804,402 479.804,470 608.528,470 "/>
    <polyline style="fill: none; fill-opacity:0; stroke-width: 2; stroke: #000000" points="600.764,475 610.764,470 600.764,465 "/>
  </g>
  <g>
    <polyline style="fill: none; fill-opacity:0; stroke-width: 2; stroke: #000000" points="849.95,402.41 911.625,402.41 911.625,450.528 "/>
    <polyline style="fill: none; fill-opacity:0; stroke-width: 2; stroke: #000000" points="906.625,442.764 911.625,452.764 916.625,442.764 "/>
  </g>
  <g>
    <polyline style="fill: none; fill-opacity:0; stroke-width: 2; stroke: #000000" points="346.607,402 480.304,402 480.304,606.998 609.528,606.998 "/>
    <polyline style="fill: none; fill-opacity:0; stroke-width: 2; stroke: #000000" points="601.764,611.998 611.764,606.998 601.764,601.998 "/>
  </g>
  <g>
    <rect style="fill: #ffffff" x="613.393" y="525" width="146.25" height="28"/>
    <rect style="fill: none; fill-opacity:0; stroke-width: 2; stroke: #000000" x="613.393" y="525" width="146.25" height="28"/>
    <text font-size="16" style="fill: #000000;text-anchor:middle;font-family:sans-serif;font-style:normal;font-weight:700" x="686.518" y="544">qt_TestSupport</text>
    <rect style="fill: #ffffff" x="613.393" y="553" width="146.25" height="8"/>
    <rect style="fill: none; fill-opacity:0; stroke-width: 2; stroke: #000000" x="613.393" y="553" width="146.25" height="8"/>
    <rect style="fill: #ffffff" x="613.393" y="561" width="146.25" height="8"/>
    <rect style="fill: none; fill-opacity:0; stroke-width: 2; stroke: #000000" x="613.393" y="561" width="146.25" height="8"/>
  </g>
  <g>
    <polyline style="fill: none; fill-opacity:0; stroke-width: 2; stroke: #000000" points="346.607,402 480,402 480,539 608.921,539 "/>
    <polyline style="fill: none; fill-opacity:0; stroke-width: 2; stroke: #000000" points="601.157,544 611.157,539 601.157,534 "/>
  </g>
</svg>
